# xmcd CD database file
#
# Track frame offsets:
#	150
#	14594
#	31771
#	48642
#	63534
#	78023
#
# Disc length: 1234 seconds
#
# Revision: 0
# Processed by: cddbd v1.5.2PL0 Copyright (c) Steve Scherf et al.
# Submitted via: CDex 2.01
#
DISCID=4304d006
DTITLE=Valdez - Valdez
DYEAR=2019
DGENRE=Power Ballad
TTITLE0=Munchausen By Proxy
TTITLE1=Hide And Seek
TTITLE2=Best Summer
TTITLE3=30 Feet
TTITLE4=Spinning
TTITLE5=Harvest Moon
EXTD=YEAR: 2019
EXTT0=
EXTT1=
EXTT2=
EXTT3=
EXTT4=
EXTT5=
PLAYORDER=
